<svg xmlns="http://www.w3.org/2000/svg" viewBox="0 0 900 1000">
  <defs>
    <linearGradient id="bg" x1="0" x2="1" y1="0" y2="1">
      <stop offset="0" stop-color="#eaf5ff"/>
      <stop offset="0.5" stop-color="#fff9ee"/>
      <stop offset="1" stop-color="#f9dfd4"/>
    </linearGradient>
    <linearGradient id="orb" x1="0" x2="1" y1="0" y2="1">
      <stop offset="0" stop-color="#244dd8"/>
      <stop offset="0.5" stop-color="#7c4dff"/>
      <stop offset="1" stop-color="#ef765f"/>
    </linearGradient>
    <filter id="shadow" x="-20%" y="-20%" width="140%" height="140%">
      <feDropShadow dx="0" dy="35" stdDeviation="35" flood-color="#102b7c" flood-opacity="0.18"/>
    </filter>
  </defs>
  <rect width="900" height="1000" fill="url(#bg)"/>
  <circle cx="210" cy="170" r="130" fill="#17a88b" opacity="0.16"/>
  <circle cx="760" cy="280" r="180" fill="#244dd8" opacity="0.12"/>
  <circle cx="690" cy="830" r="220" fill="#ef765f" opacity="0.18"/>
  <g filter="url(#shadow)">
    <circle cx="450" cy="390" r="150" fill="url(#orb)"/>
    <path d="M190 855c42-184 162-276 260-276s218 92 260 276" fill="#244dd8"/>
    <path d="M296 846c25-103 88-164 154-164s129 61 154 164" fill="#fff9ee" opacity="0.95"/>
    <circle cx="397" cy="370" r="18" fill="white" opacity="0.92"/>
    <circle cx="503" cy="370" r="18" fill="white" opacity="0.92"/>
    <path d="M390 444c37 30 83 30 120 0" stroke="white" stroke-width="18" stroke-linecap="round" fill="none" opacity="0.85"/>
  </g>
  <rect x="135" y="74" width="242" height="58" rx="29" fill="white" opacity="0.84"/>
  <text x="256" y="112" text-anchor="middle" font-family="Arial, Helvetica, sans-serif" font-size="24" font-weight="800" fill="#102b7c">Replace with your photo</text>
  <text x="450" y="935" text-anchor="middle" font-family="Arial, Helvetica, sans-serif" font-size="52" font-weight="900" fill="#172238">Safayet Ullah</text>
</svg>
