<svg xmlns="http://www.w3.org/2000/svg" viewBox="0 0 980 620">
  <defs><linearGradient id="g" x1="0" x2="1" y1="0" y2="1"><stop stop-color="#f5edff"/><stop offset=".6" stop-color="#fff9ee"/><stop offset="1" stop-color="#ffe0d6"/></linearGradient><linearGradient id="p" x1="0" x2="1" y1="0" y2="1"><stop stop-color="#ef765f"/><stop offset="1" stop-color="#7c4dff"/></linearGradient></defs>
  <rect width="980" height="620" fill="url(#g)"/>
  <circle cx="490" cy="300" r="220" fill="#244dd8" opacity=".08"/>
  <rect x="86" y="90" width="808" height="440" rx="48" fill="white" opacity=".78"/>
  <rect x="130" y="135" width="310" height="350" rx="34" fill="url(#p)"/>
  <path d="M215 265h140l24 168H191z" fill="white" opacity=".9"/><path d="M230 260c10-55 100-55 110 0" fill="none" stroke="white" stroke-width="18" stroke-linecap="round"/>
  <rect x="480" y="145" width="330" height="42" rx="21" fill="#172238" opacity=".9"/>
  <rect x="480" y="225" width="170" height="22" rx="11" fill="#244dd8" opacity=".3"/><rect x="480" y="265" width="280" height="22" rx="11" fill="#244dd8" opacity=".18"/><rect x="480" y="305" width="230" height="22" rx="11" fill="#244dd8" opacity=".18"/>
  <rect x="480" y="380" width="150" height="58" rx="29" fill="#244dd8"/><text x="555" y="417" font-family="Arial" font-size="22" font-weight="900" fill="white" text-anchor="middle">Shop 3D</text>
  <text x="480" y="520" font-family="Arial" font-size="46" font-weight="900" fill="#172238">NexaStore</text>
</svg>
