<svg xmlns="http://www.w3.org/2000/svg" viewBox="0 0 980 620">
  <defs><linearGradient id="g" x1="0" x2="1" y1="0" y2="1"><stop stop-color="#fff9ee"/><stop offset=".55" stop-color="#eaf5ff"/><stop offset="1" stop-color="#dbe5ff"/></linearGradient><linearGradient id="a" x1="0" x2="1" y1="0" y2="1"><stop stop-color="#244dd8"/><stop offset="1" stop-color="#7c4dff"/></linearGradient></defs>
  <rect width="980" height="620" fill="url(#g)"/>
  <circle cx="820" cy="130" r="150" fill="#ef765f" opacity=".18"/><circle cx="180" cy="500" r="170" fill="#17a88b" opacity=".15"/>
  <rect x="90" y="92" width="800" height="436" rx="42" fill="white" opacity=".82"/>
  <rect x="130" y="132" width="210" height="356" rx="30" fill="#102b7c" opacity=".95"/>
  <rect x="370" y="132" width="210" height="160" rx="28" fill="url(#a)"/>
  <rect x="610" y="132" width="240" height="160" rx="28" fill="#f4d9ca"/>
  <rect x="370" y="322" width="480" height="166" rx="28" fill="#eaf5ff"/>
  <path d="M412 418c58-84 113 42 174-37 40-52 82-44 128 12 25 31 46 47 78 20" fill="none" stroke="#244dd8" stroke-width="16" stroke-linecap="round"/>
  <text x="165" y="200" font-family="Arial" font-size="30" font-weight="900" fill="white">OrbitLearn</text>
  <text x="165" y="244" font-family="Arial" font-size="18" font-weight="700" fill="#c9d8ff">LMS Dashboard</text>
  <circle cx="222" cy="355" r="54" fill="#ef765f"/><text x="222" y="368" font-family="Arial" font-size="42" font-weight="900" fill="white" text-anchor="middle">86</text>
</svg>
