<svg xmlns="http://www.w3.org/2000/svg" viewBox="0 0 980 620">
  <defs><linearGradient id="g" x1="0" x2="1" y1="0" y2="1"><stop stop-color="#fff9ee"/><stop offset=".58" stop-color="#f4eeff"/><stop offset="1" stop-color="#eaf5ff"/></linearGradient><linearGradient id="b" x1="0" x2="1" y1="0" y2="1"><stop stop-color="#244dd8"/><stop offset="1" stop-color="#17a88b"/></linearGradient></defs>
  <rect width="980" height="620" fill="url(#g)"/>
  <circle cx="790" cy="430" r="170" fill="#7c4dff" opacity=".14"/><circle cx="180" cy="140" r="150" fill="#ef765f" opacity=".17"/>
  <rect x="106" y="90" width="768" height="440" rx="46" fill="white" opacity=".8"/>
  <rect x="150" y="140" width="290" height="340" rx="34" fill="url(#b)"/>
  <rect x="498" y="150" width="300" height="44" rx="22" fill="#172238" opacity=".9"/>
  <rect x="498" y="230" width="250" height="22" rx="11" fill="#244dd8" opacity=".18"/><rect x="498" y="270" width="300" height="22" rx="11" fill="#244dd8" opacity=".18"/><rect x="498" y="310" width="220" height="22" rx="11" fill="#244dd8" opacity=".18"/>
  <rect x="498" y="385" width="100" height="100" rx="26" fill="#fff9ee"/><rect x="622" y="385" width="100" height="100" rx="26" fill="#fde6df"/><rect x="746" y="385" width="100" height="100" rx="26" fill="#eaf5ff"/>
  <text x="212" y="260" font-family="Arial" font-size="48" font-weight="900" fill="white">AI</text><text x="212" y="315" font-family="Arial" font-size="28" font-weight="900" fill="white">Notes</text><path d="M220 365h150M220 405h110" stroke="white" stroke-width="18" stroke-linecap="round" opacity=".8"/>
</svg>
